<?xml version="1.0" standalone="no"?>
<!DOCTYPE svg PUBLIC "-//W3C//DTD SVG 20010904//EN"
 "http://www.w3.org/TR/2001/REC-SVG-20010904/DTD/svg10.dtd">
<svg version="1.0" xmlns="http://www.w3.org/2000/svg"
 width="260.000000pt" height="260.000000pt" viewBox="0 0 260.000000 260.000000"
 preserveAspectRatio="xMidYMid meet">
<metadata>
Created by potrace 1.14, written by Peter Selinger 2001-2017
</metadata>
<g transform="translate(0.000000,260.000000) scale(0.100000,-0.100000)"
fill="#000000" stroke="none">
<path d="M490 1868 c0 -27 1 -27 69 -27 93 0 140 -10 152 -32 6 -13 9 -176 7
-472 l-3 -452 -30 -54 c-42 -75 -90 -105 -162 -98 -58 6 -124 41 -143 77 -9
17 -8 20 9 20 31 0 69 41 75 79 13 93 -81 146 -145 82 -23 -24 -29 -38 -29
-73 1 -83 50 -153 140 -199 66 -34 185 -33 260 3 66 31 110 72 147 136 l28 47
2 385 c2 212 3 415 3 452 0 83 12 98 81 98 47 0 49 1 49 28 l0 27 -255 0 -255
0 0 -27z"/>
<path d="M1119 1895 c0 0 -3 -12 -5 -27 -5 -28 -4 -28 48 -29 101 -1 108 -7
192 -144 59 -96 158 -258 191 -311 11 -18 41 -68 68 -111 l47 -80 0 -174 c0
-96 -3 -184 -6 -196 -8 -27 -32 -36 -109 -37 -56 -2 -60 -3 -62 -27 l-2 -26
249 1 c177 0 251 3 254 11 8 23 -14 40 -54 41 -74 3 -85 5 -104 19 -18 13 -19
29 -19 203 l1 188 152 250 c84 137 166 268 182 291 35 52 101 92 165 101 42 6
48 10 48 31 l0 24 -183 1 -182 1 0 -27 c0 -21 5 -28 20 -28 30 0 70 -22 72
-39 4 -50 -31 -116 -251 -464 l-43 -67 -52 87 c-29 49 -100 166 -159 260 -59
95 -107 179 -107 188 0 21 32 35 79 35 38 0 41 2 41 28 l0 27 -235 0 c-129 0
-235 0 -236 0z"/>
</g>
</svg>
